<?xml version="1.0" encoding="UTF-8" standalone="no"?>
<svg
   xmlns:dc="http://purl.org/dc/elements/1.1/"
   xmlns:cc="http://creativecommons.org/ns#"
   xmlns:rdf="http://www.w3.org/1999/02/22-rdf-syntax-ns#"
   xmlns:svg="http://www.w3.org/2000/svg"
   xmlns="http://www.w3.org/2000/svg"
   viewBox="0 0 666.66669 666.66669"
   height="666.66669"
   width="666.66669"
   xml:space="preserve"
   id="svg2"
   version="1.1"><metadata
     id="metadata8"><rdf:RDF><cc:Work
         rdf:about=""><dc:format>image/svg+xml</dc:format><dc:type
           rdf:resource="http://purl.org/dc/dcmitype/StillImage" /></cc:Work></rdf:RDF></metadata><defs
     id="defs6"><clipPath
       id="clipPath18"
       clipPathUnits="userSpaceOnUse"><path
         id="path16"
         d="M 0,500 H 500 V 0 H 0 Z" /></clipPath></defs><g
     transform="matrix(1.3333333,0,0,-1.3333333,0,666.66667)"
     id="g10"><g
       id="g12"><g
         clip-path="url(#clipPath18)"
         id="g14"><g
           transform="translate(350,280.209)"
           id="g20"><path
             id="path22"
             style="fill:#513496;fill-opacity:1;fill-rule:nonzero;stroke:none"
             d="m 0,0 v -60.419 c 0,-4.253 -3.142,-7.712 -7.003,-7.712 h -185.994 c -3.861,0 -7.003,3.459 -7.003,7.712 V 0 c 0,4.252 3.142,7.711 7.003,7.711 H -7.003 C -3.142,7.711 0,4.252 0,0 m -211.267,-69.042 c 0.037,-0.1 0.07,-0.199 0.109,-0.298 l -0.041,0.034 c -0.025,0.087 -0.045,0.176 -0.068,0.264 M 1.264,17.891 h -202.528 c -6.195,0 -11.236,-5.624 -11.236,-12.536 v -71.129 c 0,-6.912 5.041,-12.536 11.236,-12.536 H 1.264 c 6.195,0 11.236,5.624 11.236,12.536 V 5.355 c 0,6.912 -5.041,12.536 -11.236,12.536" /></g><g
           transform="translate(157.0034,287.9204)"
           id="g24"><path
             id="path26"
             style="fill:#5c3cab;fill-opacity:1;fill-rule:nonzero;stroke:none"
             d="M 0,0 C -3.862,0 -7.003,-3.459 -7.003,-7.711 V -68.13 c 0,-4.253 3.141,-7.712 7.003,-7.712 h 185.994 c 3.861,0 7.003,3.459 7.003,7.712 v 60.419 c 0,4.252 -3.142,7.711 -7.003,7.711 z" /></g></g></g></g></svg>