<svg id="Layer_1" data-name="Layer 1" xmlns="http://www.w3.org/2000/svg" viewBox="0 0 225 96.2"><defs><style>.cls-1{fill:none;}.cls-2{fill:#513496;}.cls-3{fill:#5c3cab;}</style></defs><title>logo</title><path class="cls-1" d="M138.73,288.83a2.68,2.68,0,0,1,.07.27l0,0Z" transform="translate(-137.5 -201.9)"/><path class="cls-2" d="M351.26,201.9H148.74c-6.2,0-11.24,5.62-11.24,12.54v71.13c0,6.91,5,12.53,11.24,12.53H351.26c6.2,0,11.24-5.62,11.24-12.53V214.44C362.5,207.52,357.46,201.9,351.26,201.9ZM138.73,288.83l.11.3,0,0A2.68,2.68,0,0,0,138.73,288.83Zm211.27-69v60.42c0,4.25-3.14,7.71-7,7.71H157c-3.86,0-7-3.46-7-7.71V219.79c0-4.25,3.14-7.71,7-7.71H343C346.86,212.08,350,215.54,350,219.79Z" transform="translate(-137.5 -201.9)"/><path class="cls-3" d="M157,212.08c-3.86,0-7,3.46-7,7.71v60.42c0,4.25,3.14,7.71,7,7.71H343c3.86,0,7-3.46,7-7.71V219.79c0-4.25-3.14-7.71-7-7.71Z" transform="translate(-137.5 -201.9)"/></svg>